<svg xmlns="http://www.w3.org/2000/svg" xmlns:xlink="http://www.w3.org/1999/xlink" width="1em" height="1em" preserveAspectRatio="xMidYMid meet" viewBox="0 0 16 16" style="-ms-transform: rotate(360deg); -webkit-transform: rotate(360deg); transform: rotate(360deg);"><path fill="currentColor" fill-rule="evenodd" d="M8.38 1.103a.75.75 0 0 0-.76 0L.37 5.353a.75.75 0 0 0 0 1.294l7.25 4.25a.75.75 0 0 0 .76 0l7.25-4.25a.75.75 0 0 0 0-1.294l-7.25-4.25ZM8 9.381L2.233 6L8 2.62L13.767 6L8 9.38Zm-6.87-.028a.75.75 0 0 0-.76 1.294l7.25 4.25a.75.75 0 0 0 .76 0l7.25-4.25a.75.75 0 0 0-.76-1.294L8 13.381L1.13 9.353Z" clip-rule="evenodd"/></svg>