<svg xmlns="http://www.w3.org/2000/svg" xmlns:xlink="http://www.w3.org/1999/xlink" width="1em" height="1em" preserveAspectRatio="xMidYMid meet" viewBox="0 0 16 16" style="-ms-transform: rotate(360deg); -webkit-transform: rotate(360deg); transform: rotate(360deg);"><path fill="currentColor" d="M3.75 2a.75.75 0 0 0 0 1.5h8.5a.75.75 0 0 0 0-1.5h-8.5Zm4.78 2.72a.75.75 0 0 0-1.06 0L4.22 7.97a.75.75 0 0 0 1.06 1.06l1.97-1.97v6.19a.75.75 0 0 0 1.5 0V7.06l1.97 1.97a.75.75 0 1 0 1.06-1.06L8.53 4.72Z"/></svg>