<?xml version="1.0" encoding="utf-8"?>
<svg width="1em" height="1em" preserveAspectRatio="xMidYMid meet" viewBox="0 0 16 16" style="-ms-transform: rotate(360deg); -webkit-transform: rotate(360deg); transform: rotate(360deg);" xmlns="http://www.w3.org/2000/svg">
  <path d="M 9.738 11.502 C 9.738 12.869 11.398 12.825 11.387 11.541 L 11.332 4.447 C 11.336 2.936 9.685 3.067 9.724 4.431 C 9.725 4.461 9.847 2.989 9.738 4.431 L 9.738 6.735 L 5.314 3.615 C 4.685 3.172 3.811 3.576 3.742 4.342 C 3.739 4.371 3.738 4.401 3.738 4.43 L 3.738 11.502 C 3.738 12.272 4.571 12.753 5.238 12.369 C 5.264 12.354 5.289 12.337 5.314 12.32 L 9.738 9.199 L 9.738 11.502 Z" style="fill: rgba(0, 0, 0, 0.9);" transform="matrix(-1, 0, 0, -1, 15.125054, 15.87607)"/>
</svg>